<svg xmlns="http://www.w3.org/2000/svg" viewBox="0 0 200 200" fill="none" shape-rendering="auto"><metadata xmlns:rdf="http://www.w3.org/1999/02/22-rdf-syntax-ns#" xmlns:xsi="http://www.w3.org/2001/XMLSchema-instance" xmlns:dc="http://purl.org/dc/elements/1.1/" xmlns:dcterms="http://purl.org/dc/terms/"><rdf:RDF><rdf:Description><dc:title>Fun Emoji Set</dc:title><dc:creator>Davis Uche</dc:creator><dc:source xsi:type="dcterms:URI">https://www.figma.com/community/file/968125295144990435</dc:source><dcterms:license xsi:type="dcterms:URI">https://creativecommons.org/licenses/by/4.0/</dcterms:license><dc:rights>Remix of „Fun Emoji Set” (https://www.figma.com/community/file/968125295144990435) by „Davis Uche”, licensed under „CC BY 4.0” (https://creativecommons.org/licenses/by/4.0/)</dc:rights></rdf:Description></rdf:RDF></metadata><mask id="viewboxMask"><rect width="200" height="200" rx="100" ry="100" x="0" y="0" fill="#fff" /></mask><g mask="url(#viewboxMask)"><rect fill="#1e1f22" width="200" height="200" x="0" y="0" /><g transform="matrix(1.5625 0 0 1.5625 37.5 110.94)"><path fill-rule="evenodd" clip-rule="evenodd" d="M4 4c10.24 32.68 61.73 31.31 72 0A167.66 167.66 0 0 1 4 4Z" fill="#2B1607"/><path d="M39.68 29h-.64c-17.41-.24-31.54-9.95-36-24.74a1.02 1.02 0 0 1 .2-.95.98.98 0 0 1 .91-.28 165.35 165.35 0 0 0 71.72 0 .91.91 0 0 1 .9.3 1.04 1.04 0 0 1 .19.97C71.93 19.37 57.36 29 39.68 29ZM5.33 5.3c4.73 13.13 17.76 21.54 33.7 21.77C55.6 27.3 69.29 18.8 74.56 5.3a167.24 167.24 0 0 1-69.22 0Z" fill="#000"/><g style="mix-blend-mode:soft-light" opacity=".4"><path d="M22.02 35.23c5.08 5.6 28.25 5.96 33.85 0a79.58 79.58 0 0 1-33.85 0Z" fill="#422715"/><path d="M22.02 35.23c5.08 5.6 28.25 5.96 33.85 0a79.58 79.58 0 0 1-33.85 0Z" stroke="#000" stroke-width="1.58" stroke-miterlimit="10"/></g><path fill-rule="evenodd" clip-rule="evenodd" d="M40.83 45H38.1c-2.67 0-5.24-1.06-7.13-2.94a10 10 0 0 1-2.96-7.1V19.54c0-1.9 2.8-3.94 4.88-3.46a29.03 29.03 0 0 0 13.26 0C48 15.7 51 17.62 51 19.53v15.44a9.98 9.98 0 0 1-6.28 9.29c-1.23.5-2.55.75-3.89.74Z" fill="url(#mouthTongueOut-a)"/><path fill-rule="evenodd" clip-rule="evenodd" d="M38.27 17c.95 3.75.33 13 1.13 13 .8 0 .53-9.01 1.37-13h-2.5Z" fill="#A00707"/><defs><linearGradient id="mouthTongueOut-a" x1="39.46" y1="45" x2="39.46" y2="16" gradientUnits="userSpaceOnUse"><stop stop-color="#EF0A0A"/><stop offset=".5" stop-color="#ED0A0A"/><stop offset=".67" stop-color="#E60A0A"/><stop offset=".8" stop-color="#DB0A0A"/><stop offset=".9" stop-color="#CA0A0A"/><stop offset=".99" stop-color="#B40A0A"/><stop offset="1" stop-color="#B10A0A"/></linearGradient></defs></g><g transform="matrix(1.5625 0 0 1.5625 31.25 59.38)"><g fill-rule="evenodd" clip-rule="evenodd"><path d="M19.16 32.01C11.5 28.4-2.17 22.5-5.14 12.06a10.8 10.8 0 0 1-.36-1.46C-7.32.33 3.58-6.92 13.46.1 19.24-8.3 29.2-7.43 33.28-.83a12.1 12.1 0 0 1 1.6 4.25c2 11.3-9.5 22.27-15.72 28.6Z" fill="#CE0F0F"/><path opacity=".2" d="M17.73 28.61C10.96 25.4-.53 20.41-5.13 12.06a10.8 10.8 0 0 1-.37-1.46C-7.32.33 3.58-6.92 13.46.1 19.24-8.3 29.2-7.43 33.28-.83c0 .27.13.55.18.83 1.96 11.33-9.5 22.23-15.73 28.62Z" fill="#fff"/><path opacity=".4" d="M-3.74 9.01C-3.18 4.7 5.96-.95 9.74.12 2.38-1.9-2.71 1.58-3.74 9.02Z" fill="#fff"/><path d="M70.07 32.01c7.66-3.62 21.33-9.52 24.29-19.95.15-.48.28-.97.36-1.46C96.54.33 85.65-6.92 75.76.1 69.98-8.3 60.04-7.43 55.95-.83a12.1 12.1 0 0 0-1.6 4.25c-2.03 11.3 9.5 22.27 15.72 28.6Z" fill="#CE0F0F"/><path opacity=".2" d="M71.5 28.61c6.77-3.21 18.25-8.2 22.86-16.55.15-.48.28-.97.36-1.46C96.54.33 85.65-6.92 75.76.1 69.98-8.3 60.04-7.43 55.94-.83c0 .27-.13.55-.17.83-2.03 11.33 9.5 22.23 15.72 28.62Z" fill="#fff"/><path opacity=".4" d="M92.95 9.01C92.41 4.7 83.25-.95 79.47.12 86.85-1.9 92 1.58 92.95 9.02Z" fill="#fff"/></g></g></g></svg>