<svg xmlns="http://www.w3.org/2000/svg" viewBox="0 0 200 200" fill="none" shape-rendering="auto"><metadata xmlns:rdf="http://www.w3.org/1999/02/22-rdf-syntax-ns#" xmlns:xsi="http://www.w3.org/2001/XMLSchema-instance" xmlns:dc="http://purl.org/dc/elements/1.1/" xmlns:dcterms="http://purl.org/dc/terms/"><rdf:RDF><rdf:Description><dc:title>Fun Emoji Set</dc:title><dc:creator>Davis Uche</dc:creator><dc:source xsi:type="dcterms:URI">https://www.figma.com/community/file/968125295144990435</dc:source><dcterms:license xsi:type="dcterms:URI">https://creativecommons.org/licenses/by/4.0/</dcterms:license><dc:rights>Remix of „Fun Emoji Set” (https://www.figma.com/community/file/968125295144990435) by „Davis Uche”, licensed under „CC BY 4.0” (https://creativecommons.org/licenses/by/4.0/)</dc:rights></rdf:Description></rdf:RDF></metadata><mask id="viewboxMask"><rect width="200" height="200" rx="100" ry="100" x="0" y="0" fill="#fff" /></mask><g mask="url(#viewboxMask)"><rect fill="#1e1f22" width="200" height="200" x="0" y="0" /><g transform="matrix(1.5625 0 0 1.5625 37.5 110.94)"><path d="M40.54 12h-.75c-9.7.22-20.8 5.3-23.7 16.15a1.36 1.36 0 0 0 .44 1.55 1.41 1.41 0 0 0 2.26-.86c2.55-9.46 12.42-13.89 21.06-14.08 8.24-.16 19.04 3.84 22.46 14.57a1.47 1.47 0 0 0 1.65.55A1.44 1.44 0 0 0 65 28.5C61.85 18.69 52.3 12 40.54 12Z" fill="#000"/></g><g transform="matrix(1.5625 0 0 1.5625 31.25 59.38)"><g fill-rule="evenodd" clip-rule="evenodd"><path d="M19.16 32.01C11.5 28.4-2.17 22.5-5.14 12.06a10.8 10.8 0 0 1-.36-1.46C-7.32.33 3.58-6.92 13.46.1 19.24-8.3 29.2-7.43 33.28-.83a12.1 12.1 0 0 1 1.6 4.25c2 11.3-9.5 22.27-15.72 28.6Z" fill="#CE0F0F"/><path opacity=".2" d="M17.73 28.61C10.96 25.4-.53 20.41-5.13 12.06a10.8 10.8 0 0 1-.37-1.46C-7.32.33 3.58-6.92 13.46.1 19.24-8.3 29.2-7.43 33.28-.83c0 .27.13.55.18.83 1.96 11.33-9.5 22.23-15.73 28.62Z" fill="#fff"/><path opacity=".4" d="M-3.74 9.01C-3.18 4.7 5.96-.95 9.74.12 2.38-1.9-2.71 1.58-3.74 9.02Z" fill="#fff"/><path d="M70.07 32.01c7.66-3.62 21.33-9.52 24.29-19.95.15-.48.28-.97.36-1.46C96.54.33 85.65-6.92 75.76.1 69.98-8.3 60.04-7.43 55.95-.83a12.1 12.1 0 0 0-1.6 4.25c-2.03 11.3 9.5 22.27 15.72 28.6Z" fill="#CE0F0F"/><path opacity=".2" d="M71.5 28.61c6.77-3.21 18.25-8.2 22.86-16.55.15-.48.28-.97.36-1.46C96.54.33 85.65-6.92 75.76.1 69.98-8.3 60.04-7.43 55.94-.83c0 .27-.13.55-.17.83-2.03 11.33 9.5 22.23 15.72 28.62Z" fill="#fff"/><path opacity=".4" d="M92.95 9.01C92.41 4.7 83.25-.95 79.47.12 86.85-1.9 92 1.58 92.95 9.02Z" fill="#fff"/></g></g></g></svg>