<svg xmlns="http://www.w3.org/2000/svg" viewBox="0 0 440 440" fill="none" shape-rendering="auto"><metadata xmlns:rdf="http://www.w3.org/1999/02/22-rdf-syntax-ns#" xmlns:xsi="http://www.w3.org/2001/XMLSchema-instance" xmlns:dc="http://purl.org/dc/elements/1.1/" xmlns:dcterms="http://purl.org/dc/terms/"><rdf:RDF><rdf:Description><dc:title>Face Generator</dc:title><dc:creator>The Visual Team</dc:creator><dc:source xsi:type="dcterms:URI">https://www.figma.com/community/file/986078800058673824</dc:source><dcterms:license xsi:type="dcterms:URI">https://creativecommons.org/licenses/by/4.0/</dcterms:license><dc:rights>Remix of „Face Generator” (https://www.figma.com/community/file/986078800058673824) by „The Visual Team”, licensed under „CC BY 4.0” (https://creativecommons.org/licenses/by/4.0/)</dc:rights></rdf:Description></rdf:RDF></metadata><mask id="viewboxMask"><rect width="440" height="440" rx="220" ry="220" x="0" y="0" fill="#fff" /></mask><g mask="url(#viewboxMask)"><rect fill="#1e1f22" width="440" height="440" x="0" y="0" /><g transform="matrix(.71048 0 0 .71048 24 2)"><path d="M41.6 296.4c-5.7 42.1 30.8 58.1 63.3 60-7.7 18.8 9.6 62 47.2 69.8 37.7 7.7 66.2-26.5 75.8-44.5 2.5 16.2 19.2 51 65.5 60.1 46.4 9.1 59.8-61.6 62.1-85.5 29 21 69 49.2 115.5 25.4 26.5-13.6 14-58.3 0-71 16.1-9.8 46.7-37.5 40-69.7-6.5-32.2-52.3-38.3-74.4-37.3 15.3-13 40-45.6 16.6-71.5-23.5-26-59.9-10.9-75.1 0 4.8-16.9 1.8-50.2-45.9-63.2-27.7-7.5-68 19.9-71.9 36.1-10.8-17-41.6-44.5-74.7-32.5-33 12-38.6 45.4-33.3 66.2-13.1-4-47.4-6.6-68.2 23.7-21 30.3 6.1 65.3 20.8 78.5-17.6 2-58.7 21.8-63.3 55.4Z" fill="#4a312c"/></g><g transform="translate(81.7 150.7) scale(.71856)"><path d="M69 111.3C69 95 82 82 98.3 82h185.4C300 82 313 95 313 111.3v241.4c0 16.2-13 29.3-29.3 29.3H98.3C82 382 69 369 69 352.7V111.3Z" fill="#89532c"/><path d="M69 330.8v22c0 16.1 13 29.2 29.3 29.2h185.4c16.2 0 29.3-13 29.3-29.3v-22c0 16.2-13 29.3-29.3 29.3H98.3C82 360 69 347 69 330.8Z" fill="#000" fill-opacity=".2"/></g><g transform="translate(199.5 333.4) scale(.71856)"><path d="M-24 27.7a17 17 0 0 1 17-17h65.7a17 17 0 0 1 0 34H-7a17 17 0 0 1-17-17Z" fill="#DE8383"/><path fill-rule="evenodd" clip-rule="evenodd" d="M75.6 26h-99.5A17 17 0 0 1-7 9.7h65.6a17 17 0 0 1 17 16.3Z" fill="#F9F9F9"/></g><g transform="translate(280.7 235.4) scale(.71856)"><rect x="23" y="20" width="88" height="88.1" rx="44" fill="#89532c"/><path d="M47.6 57.5c2.5-6 18-32 34.5-17.2 12.7 11.3-15 33.2-16.5 22.2C64 51.5 99 52 89 78.5 84.8 90 62 91 47.6 77" stroke="#000" stroke-opacity=".2" stroke-width="4" stroke-linecap="round" stroke-linejoin="round"/></g><g transform="matrix(-.71856 0 0 .71856 161.5 235.4)"><rect x="23" y="20" width="88" height="88.1" rx="44" fill="#89532c"/><path d="M47.6 57.5c2.5-6 18-32 34.5-17.2 12.7 11.3-15 33.2-16.5 22.2C64 51.5 99 52 89 78.5 84.8 90 62 91 47.6 77" stroke="#000" stroke-opacity=".2" stroke-width="4" stroke-linecap="round" stroke-linejoin="round"/></g><g transform="translate(114.8 215.5) scale(.71856)"><ellipse cx="29" cy="17.5" rx="29" ry="17.5" transform="matrix(-1 0 0 1 117 80)" fill="#fff"/><path d="M94.8 114.5a18 18 0 0 1 1.9-33.7C108.5 83 117 89.7 117 97.5c0 8.2-9.5 15.2-22.2 17Z" fill="#000"/><path d="M57 43.4A60.5 60.5 0 0 1 90 34c18.2 0 35.1 7.8 33 9.4 0 18.2-3.5 0-32 0-30.8 0-34 18.2-34 0ZM167.9 43.4a60.5 60.5 0 0 1 33-9.4c18.1 0 35 7.8 32.9 9.4 0 18.2-3.4 0-32 0-30.7 0-34 18.2-34 0Z" fill="#000"/><ellipse cx="29" cy="17.5" rx="29" ry="17.5" transform="matrix(-1 0 0 1 227 80)" fill="#fff"/><path d="M204.8 114.5a18 18 0 0 1 1.9-33.7C218.5 83 227 89.7 227 97.5c0 8.2-9.5 15.2-22.2 17Z" fill="#000"/></g><g transform="translate(127.7 288.7) scale(.71856)"></g><g transform="translate(193 279.4) scale(.71856)"><path d="M37.8 22c-7.1 9.5-20.2 29-16 31 4.3 2 18.6 2.5 25.3 2.5" stroke="#000" stroke-opacity=".5" stroke-width="4" stroke-linecap="round" stroke-linejoin="round"/></g><g transform="matrix(.52237 0 0 .52237 122.9 244.8)"><path d="M52 8H11v96h41V8Z" fill="#4a312c"/></g><g transform="matrix(-.52237 0 0 .52237 315.7 244.8)"><path d="M52 8H11v96h41V8Z" fill="#4a312c"/></g><g transform="matrix(.52237 0 0 .52237 108.7 145.6)"><path d="M374 133c6.5 15.9 11.5 34.5 11.5 70-11 0-38.5 11-92.5-18-54.8-29.5-68.9-59.5-82-79-13 27-37 51.3-72.5 73.5C103 201.7 54.2 200.5 38 203c0-23.1 2-46 10.9-67.4A176 176 0 0 1 211 27a175 175 0 0 1 124 51.5c16.4 16.4 30.2 33.1 39 54.5Z" fill="#4a312c"/></g></g></svg>